<svg id="visual" viewBox="0 0 900 600" width="900" height="600" xmlns="http://www.w3.org/2000/svg" xmlns:xlink="http://www.w3.org/1999/xlink" version="1.1"><rect x="0" y="0" width="900" height="600" fill="#ffffff"></rect><defs><linearGradient id="grad1_0" x1="33.3%" y1="0%" x2="100%" y2="100%"><stop offset="20%" stop-color="#ffffff" stop-opacity="1"></stop><stop offset="80%" stop-color="#ffffff" stop-opacity="1"></stop></linearGradient></defs><defs><linearGradient id="grad2_0" x1="0%" y1="0%" x2="66.7%" y2="100%"><stop offset="20%" stop-color="#ffffff" stop-opacity="1"></stop><stop offset="80%" stop-color="#ffffff" stop-opacity="1"></stop></linearGradient></defs><g transform="translate(900, 0)"><path d="M0 270.4C-47.5 263.5 -95 256.5 -135.2 234.2C-175.4 211.8 -208.2 174.1 -229.5 132.5C-250.8 90.9 -260.6 45.5 -270.4 0L0 0Z" fill="#0066FF"></path></g><g transform="translate(0, 600)"><path d="M0 -270.4C48.7 -264.1 97.4 -257.9 135.2 -234.2C173.1 -210.5 200.1 -169.4 220.8 -127.5C241.6 -85.6 256 -42.8 270.4 0L0 0Z" fill="#0066FF"></path></g></svg>